<svg width="416" height="416" viewBox="0 0 416 416" fill="none" xmlns="http://www.w3.org/2000/svg">
<path d="M269.284 144.723C276.827 136.315 289.063 136.306 296.606 144.714C304.148 153.123 304.14 166.764 296.598 175.173L196.383 286.889C192.6 291.106 187.638 293.207 182.68 293.194C177.699 293.349 172.665 291.371 168.777 287.227L123.37 238.809C115.659 230.586 115.382 216.957 122.752 208.368C130.122 199.779 142.347 199.482 150.059 207.704L182.12 241.891L269.284 144.723Z" fill="white"/>
<path fill-rule="evenodd" clip-rule="evenodd" d="M207.92 0C322.753 9.60578e-06 415.85 93.0866 415.851 207.92C415.851 322.754 322.754 415.851 207.92 415.851C93.0867 415.85 4.80538e-05 322.753 0 207.92C0.000937867 93.0872 93.0872 0.000937806 207.92 0ZM207.92 43.7848C117.273 43.7857 43.7857 117.273 43.7848 207.92C43.7848 298.567 117.272 372.054 207.92 372.055C298.568 372.055 372.055 298.568 372.055 207.92C372.054 117.272 298.567 43.7848 207.92 43.7848Z" fill="white"/>
</svg>
