<svg width="754" height="754" viewBox="0 0 754 754" fill="none" xmlns="http://www.w3.org/2000/svg">
<path d="M376.74 2.5C583.431 2.50024 750.998 170.049 751 376.74C751 583.432 583.432 751 376.74 751C170.049 750.998 2.50031 583.431 2.5 376.74C2.50169 170.05 170.05 2.50169 376.74 2.5ZM376.74 85.7832C216.053 85.7849 85.7849 216.053 85.7832 376.74C85.7835 537.428 216.052 667.696 376.74 667.697C537.429 667.697 667.697 537.429 667.697 376.74C667.696 216.052 537.428 85.7834 376.74 85.7832ZM484.592 262.081C499.07 245.942 522.681 245.923 537.162 262.065H537.163C551.501 278.05 551.485 303.878 537.148 319.86L357.975 519.599V519.6C350.766 527.635 341.252 531.704 331.684 531.7C322.349 531.989 312.968 528.398 305.637 520.975L304.934 520.244L223.749 433.678C209.084 418.039 208.569 392.233 222.57 375.913L223.24 375.152C237.444 359.421 260.532 359.098 275.114 374.645L330.57 433.778L484.592 262.081Z" fill="#4784F8" stroke="#4784F8" stroke-width="5" stroke-linecap="round"/>
</svg>
